<svg xmlns="http://www.w3.org/2000/svg" width="43" height="40" fill="none"><g fill="#074256" clip-path="url(#a)"><path d="M37.5676 7.41025c-.0114-.13148-.2882 2.43142-.2825 2.40283 5.4571 8.81072 6.5243 20.15222-3.1837 15.14102l1.9908-18.26785H23.5841c-.5039.9699-1.319 1.74351-2.3134 2.19893-.189-.49351-.3589-.97942-.5097-1.45961v-.00191c.8933-.45731 1.5385-1.28619 1.7618-2.2618h14.9513c.2042 0 .3989-.08003.5421-.22294.1432-.14292.2233-.33728.2233-.54117V2.88097c-.0038-1.68254-1.3705-3.04498-3.0559-3.043077H3.17795c-1.6835 0-3.050163 1.360537-3.05588 3.043077v1.51678c0 .20388.080166.39825.223322.54117.143156.14292.337848.22294.540187.22294H15.8388c.2176.96419.8437 1.78546 1.7179 2.24849-.1012-.90703-1.1033-2.62005.145-2.97449.2005-.03621.4066.00953.5727.12386.166.11623.2806.29535.3149.49541 1.7236 8.37467 7.9804 17.53077 15.3329 21.54727 11.5191 4.9942 11.0171-8.6873 3.6454-19.19215Z"/><path d="M22.4242 17.601c-1.7789-2.5972-3.222-5.4078-4.2947-8.36682-1.4353-.31631-2.6588-1.2481-3.346-2.54766H2.27002L5.5473 36.7685c.20997 1.934 1.84764 3.3994 3.79646 3.3936H29.0172c1.9508.0057 3.5885-1.4596 3.7984-3.3936l.9314-8.5805c-3.7964-1.7473-7.9082-5.5221-11.3228-10.587Z"/></g><defs><clipPath id="a"><path fill="#fff" d="M0 0h43v40H0z"/></clipPath></defs></svg>