<svg xmlns="http://www.w3.org/2000/svg" width="50" height="50" fill="none"><g fill="#074256" clip-path="url(#a)"><path d="M34.9218 36.7188H15.078c-.1213.0001-.2395.0377-.3386.1077-.0991.07-.174.1689-.2147.2831-.0406.1143-.0449.2383-.0123.3552.0326.1168.1005.2206.1945.2973 2.9128 2.3578 6.5467 3.6442 10.2942 3.6442 3.7474 0 7.3813-1.2864 10.2941-3.6442.0941-.0768.1621-.1809.1947-.2979.0325-.117.028-.2413-.0129-.3557-.0409-.1143-.1163-.2132-.2157-.283-.0995-.0698-.2181-.1071-.3395-.1067ZM39.8217 27.3438H10.1791c-.1775.0002-.35263.0406-.51227.1183-.15964.0776-.29962.1903-.40945.3298-.10983.1394-.18665.3019-.22469.4753-.03805.1734-.03633.3531.00502.5258.20351.8582.47682 1.6984.81719 2.5121.08936.2147.2402.3982.4336.5274.1933.1292.4206.1983.6531.1987h28.1176c.2325-.0004.4597-.0695.653-.1988.1933-.1292.344-.3126.4333-.5273.3404-.8138.6138-1.6539.8176-2.5121.0413-.1726.0429-.3524.0049-.5257-.0381-.1734-.1149-.3358-.2247-.4753-.1099-.1394-.2498-.2522-.4094-.3298s-.3347-.1181-.5122-.1184ZM15.0779 13.2813h19.8438c.1212-.0002.2395-.0378.3386-.1078.099-.07.174-.1689.2146-.2831.0407-.1143.045-.2383.0124-.3551-.0326-.1169-.1006-.2207-.1945-.2974-2.9129-2.35775-6.5467-3.64415-10.2942-3.64415-3.7474 0-7.3813 1.2864-10.2941 3.64415-.0941.0768-.1622.1809-.1947.2979-.0326.1171-.0281.2413.0129.3557.0409.1144.1163.2132.2157.283.0994.0698.218.1071.3395.1068Z"/><path d="M43.5547 0H6.44531C4.73642.00165471 3.09799.681244 1.88962 1.88962.681244 3.09799.00165471 4.73642 0 6.44531V43.5547c.00165471 1.7089.681244 3.3473 1.88962 4.5557C3.09799 49.3188 4.73642 49.9983 6.44531 50H43.5547c1.7089-.0017 3.3473-.6812 4.5557-1.8896 1.2084-1.2084 1.8879-2.8468 1.8896-4.5557V6.44531c-.0017-1.70889-.6812-3.34732-1.8896-4.55569C46.902.681244 45.2636.00165471 43.5547 0ZM6.25 4.49219c.34766 0 .68752.10309.97659.29624.28907.19315.51437.46769.64742.78888.13304.3212.16785.67464.10003 1.01562-.06783.34098-.23524.6542-.48108.90003-.24583.24584-.55905.41325-.90003.48108-.34098.06782-.69442.03301-1.01562-.10003-.32119-.13305-.59573-.35835-.78888-.64742-.19315-.28907-.29624-.62893-.29624-.97659 0-.4662.1852-.91331.51485-1.24296.32965-.32965.77676-.51485 1.24296-.51485Zm0 41.01561c-.34766 0-.68752-.1031-.97659-.2962-.28907-.1932-.51437-.4677-.64742-.7889-.13304-.3212-.16785-.6747-.10003-1.0156.06783-.341.23524-.6542.48108-.9001.24583-.2458.55905-.4132.90003-.481.34098-.0679.69442-.0331 1.01562.1.32119.133.59573.3583.78888.6474.19315.2891.29624.6289.29624.9766 0 .4662-.1852.9133-.51485 1.243-.32965.3296-.77676.5148-1.24296.5148Zm37.5 0c-.3477 0-.6875-.1031-.9766-.2962-.2891-.1932-.5144-.4677-.6474-.7889-.1331-.3212-.1679-.6747-.1-1.0156.0678-.341.2352-.6542.481-.9001.2459-.2458.5591-.4132.9001-.481.3409-.0679.6944-.0331 1.0156.1.3212.133.5957.3583.7889.6474.1931.2891.2962.6289.2962.9766 0 .4662-.1852.9133-.5148 1.243-.3297.3296-.7768.5148-1.243.5148Zm-18.75 0c-4.0561 0-8.021-1.2028-11.3935-3.4562-3.3725-2.2534-6.00106-5.4563-7.55325-9.2036-1.55219-3.7473-1.95831-7.8707-1.16701-11.8489.7913-3.9781 2.74448-7.6322 5.61256-10.5003 2.8681-2.86808 6.5222-4.82126 10.5003-5.61256 3.9782-.7913 8.1016-.38518 11.8489 1.16701 3.7473 1.55219 6.9502 4.18075 9.2036 7.55325C44.305 16.979 45.5078 20.9439 45.5078 25c0 5.439-2.1606 10.6553-6.0066 14.5012-3.8459 3.846-9.0622 6.0066-14.5012 6.0066ZM43.75 8.00781c-.3477 0-.6875-.10309-.9766-.29624s-.5144-.46769-.6474-.78888c-.1331-.3212-.1679-.67464-.1-1.01562.0678-.34098.2352-.6542.481-.90003.2459-.24584.5591-.41325.9001-.48108.3409-.06782.6944-.03301 1.0156.10003.3212.13305.5957.35835.7889.64742.1931.28907.2962.62893.2962.97659 0 .4662-.1852.91331-.5148 1.24296-.3297.32965-.7768.51485-1.243.51485Z"/><path d="M10.9416 17.9688c-.2325.0004-.4598.0695-.6531.1987-.1934.1292-.34424.3127-.4336.5274-.34037.8137-.61368 1.6539-.81719 2.5121-.04135.1727-.04307.3524-.00502.5258.03804.1734.11486.3359.22469.4753.10983.1395.24981.2522.40945.3298.15964.0777.33477.1181.51227.1183h29.6426c.1775-.0003.3526-.0408.5122-.1184.1596-.0776.2995-.1904.4094-.3298.1098-.1395.1866-.3019.2247-.4753.038-.1733.0364-.3531-.0049-.5257-.2038-.8582-.4772-1.6983-.8176-2.5121-.0893-.2147-.24-.3981-.4333-.5273-.1933-.1293-.4205-.1984-.653-.1988H10.9416Z"/></g><defs><clipPath id="a"><path fill="#fff" d="M0 0h50v50H0z"/></clipPath></defs></svg>