<svg xmlns="http://www.w3.org/2000/svg" width="45" height="55" fill="none"><path fill="#074256" d="M45 4.57145V17.0714c0 .4911-.4018.8929-.8929.8929h-7.1428V3.67859h7.1428c.4911 0 .8929.40178.8929.89286ZM15.5356 42.9642h1.7857v7.1429c0 .4911-.4018.8928-.8929.8928H3.92843c-.49107 0-.89286-.4017-.89286-.8928v-7.1429H15.5356ZM2.14272 36.7143h.89285V18.8571c0-8.366 6.8125-15.17853 15.17853-15.17853h12.5v-.89286C30.7141 1.80357 31.5177 1 32.4999 1h1.7857c.9821 0 1.7857.80357 1.7857 1.78571V18.8571c0 .9822-.8036 1.7858-1.7857 1.7858h-1.7857c-.9822 0-1.7858-.8036-1.7858-1.7858v-.8928H19.9999c-1.4733 0-2.6786 1.2053-2.6786 2.6786v16.0714h.8928c.9822 0 1.7858.8036 1.7858 1.7857v1.7857c0 .9822-.8036 1.7857-1.7858 1.7857H2.14272c-.98215 0-1.785719-.8035-1.785719-1.7857V38.5c0-.9821.803569-1.7857 1.785719-1.7857Z"/></svg>