<svg xmlns="http://www.w3.org/2000/svg" width="37" height="50" fill="none"><g fill="#074256" clip-path="url(#a)"><path d="M35.968 0H1.03275c-.449606 0-.814.361111-.814.806667V4.56278c0 .44555.364394.80666.814.80666H35.968c.4496 0 .814-.36055.814-.80666V.806667C36.7815.361111 36.4171 0 35.968 0ZM34.7947 22.7822H2.20557c-1.29164 0-2.342777 1.0417-2.342777 2.3217 0 1.2805 1.051137 2.3222 2.342777 2.3222H34.7947c1.2917 0 2.3428-1.0417 2.3428-2.3222 0-1.28-1.0511-2.3217-2.3428-2.3217ZM33.5958 21.1694c1.1868-5.5178 1.7328-11.1161 1.9616-14.18722H1.44336c.22929 3.07112.77476 8.66942 1.96212 14.18722H33.5958ZM8.38591 9.40884c1.03768 0 1.91559.65946 2.25079 1.57446h4.6934c.4496 0 .814.3611.814.8067 0 .4455-.3644.8066-.814.8066h-4.6934c-.3352.915-1.21311 1.5745-2.25079 1.5745-1.32472 0-2.40276-1.0678-2.40276-2.3811.00056-1.3134 1.07804-2.38116 2.40276-2.38116ZM2.67529 29.0389c1.26025 6.7806 7.87481 11.9678 15.82481 11.9678 7.9499 0 14.5645-5.1872 15.8248-11.9678H2.67529Z"/><path d="M18.5001 42.6194c-3.9483 0-7.6164-1.1628-10.57862-3.1544-1.04777 3.0644-1.70985 6.305-1.95988 9.6689-.01626.2233.06111.4438.21527.6083.15473.165.37056.2578.59705.2578H30.2269c.2265 0 .4423-.0928.5965-.2573.1536-.1644.2315-.3844.2152-.6083-.25-3.3644-.9121-6.6044-1.9604-9.6683-2.9622 1.9905-6.6297 3.1533-10.5781 3.1533Z"/></g><defs><clipPath id="a"><path fill="#fff" d="M0 0h37v50H0z"/></clipPath></defs></svg>