<svg xmlns="http://www.w3.org/2000/svg" width="54" height="50" fill="none"><g fill="#074256" clip-path="url(#a)"><path d="M24.1071 23.6251c1.0226-.0014 2.0029-.407 2.726-1.128.723-.721 1.1298-1.6986 1.1312-2.7182V3.43274c-.0001-.97848-.3741-1.92014-1.046-2.633332-.6718-.7131867-1.5909-1.144286-2.5703-1.205551-.9793-.061265-1.9453.25191-2.7012.87578-.756.623873-1.2451 1.511543-1.3679 2.482343-.0195.15951-.0292.32007-.0289.48076V19.7789c-.0003.1607.0094.3213.0289.4808.1189.929.5731 1.7831 1.2777 2.4025s1.6113.9617 2.5505.9629ZM.964292 20.2596H18.3214V2.95191H.964292c-.126756-.00044-.252346.02413-.369537.0723-.117192.04816-.223669.11897-.313299.20835-.08963.08937-.160643.19555-.2089464.3124-.0483037.11686-.07294465.24209-.07250379.36849V19.2981c.0007631.2547.10260219.4989.28327619.679.180673.1802.4255.2817.68101.2825ZM36.6431 23.1442v10.8462c.4689-.0732.9429-.1085 1.4175-.1058 3.8574-.0473 3.8825 2.0031 7.3961 2.0673.9613.0314 1.9135-.1944 2.7578-.6538V23.1442c-.0083-2.3526-.4952-4.6791-1.4313-6.8386-.9361-2.1596-2.3018-4.1073-4.0146-5.7253-1.7128-1.61799-3.7369-2.87265-5.9501-3.68804-2.2131-.81539-4.5691-1.17455-6.9254-1.05574V17.375h.9643c1.534.0012 3.005.6094 4.0897 1.6911 1.0848 1.0817 1.6948 2.5484 1.696 4.0781ZM49.6222 44.9804c-1.2621.7421-2.7005 1.1335-4.1657 1.1335-1.4652.0001-2.9036-.3913-4.1657-1.1333-.9602-.6204-2.0867-.9356-3.2304-.9038-1.1377-.0322-2.258.2831-3.211.9036-1.2622.7418-2.7006 1.1331-4.1657 1.1332-1.4652 0-2.9036-.3912-4.1658-1.1329-.9572-.6192-2.0802-.9344-3.2208-.9039-1.1406-.0319-2.2641.2833-3.2207.9036-1.2636.7426-2.7037 1.1343-4.1705 1.1344-1.4667 0-2.9068-.3915-4.1705-1.134-.9728-.5824-2.08606-.8902-3.22071-.8902-1.13465-.0001-2.24796.3075-3.22076.8899-1.58984.9508-3.45675 1.334-5.29393 1.0867v4.3462h54V44.173c-1.5092-.2728-3.0663.0144-4.3778.8074Z"/><path d="M45.4565 37.8748c-3.8589.0468-3.8805-2.0022-7.3961-2.0672-1.1388-.0295-2.2593.2892-3.2111.9133-1.2617.7431-2.7003 1.135-4.1657 1.1351-1.4654 0-2.9039-.3919-4.1657-1.1349-.956-.6228-2.0792-.9413-3.2208-.9135-1.1417-.0293-2.2653.2893-3.2207.9133-1.2636.7426-2.7037 1.1343-4.1705 1.1344-1.4668 0-2.9068-.3916-4.1705-1.1341-.9703-.5895-2.08454-.9014-3.22072-.9014-1.13619-.0001-2.25047.3117-3.22075.9012-1.58931.9518-3.4577 1.3319-5.29393 1.077v6.3173c3.84926.7137 4.50791-2.0285 8.52437-1.9615 3.84493-.0515 3.87403 2.004 7.38643 2.0577 3.5087-.0576 3.5407-2.1112 7.3864-2.0577 3.8342-.055 3.878 1.9979 7.3768 2.0577 3.5119-.054 3.5412-2.1091 7.3864-2.0577 3.8555-.0524 3.8812 2.0024 7.3962 2.0577 3.5189-.0556 3.5365-2.1101 7.396-2.0577.3838.0003.7672.026 1.1475.0769v-6.3173c-3.8572-.7409-4.5167 2.0261-8.5436 1.9614Z"/></g><defs><clipPath id="a"><path fill="#fff" d="M0 0h54v50H0z"/></clipPath></defs></svg>