<svg xmlns="http://www.w3.org/2000/svg" width="55" height="40" fill="none"><g fill="#074256" clip-path="url(#a)"><path d="M54.3963 36.5866c-.8271-.6085-1.5692-1.3237-2.2067-2.1266-1.5561-1.7934-3.3201-3.7934-6.8481-3.7934-3.5281 0-5.2921 2-6.8482 3.7934-1.4085 1.6066-2.522 2.8733-4.8226 2.8733-2.3006 0-3.4207-1.2667-4.8292-2.8733-1.5561-1.7934-3.3202-3.7934-6.8482-3.7934-3.5281 0-5.2921 2-6.8482 3.7934-1.4018 1.6066-2.5152 2.8733-4.8225 2.8733-2.30736 0-3.41407-1.2667-4.8226-2.8733-.96464-1.2595-2.18203-2.3061-3.575-3.0734-.31767-.1432-.67899-.1578-1.007324-.0407-.328334.1171-.597861.3567-.751416.668-.153556.3113-.1790626.6699-.0711107.9996.1079517.3297.3408707.6046.6493587.7665 1.062322.6216 1.990152 1.4464 2.729882 2.4266C5.03719 38 6.80122 40 10.3226 40c3.5213 0 5.292-2 6.8481-3.7934 1.4086-1.6066 2.522-2.8733 4.8226-2.8733 2.3006 0 3.414 1.2667 4.8225 2.8733C28.3719 38 30.136 40 33.6707 40c3.5348 0 5.2921-2 6.8482-3.7934 1.4018-1.6066 2.5152-2.8733 4.8226-2.8733 2.3073 0 3.4207 1.2667 4.8225 2.8733.7931.9915 1.7209 1.8688 2.7567 2.6067.1471.0998.3126.1695.487.205.1744.0355.3542.0362.5289.002.1747-.0343.3407-.1027.4885-.2014.1478-.0986.2744-.2256.3723-.3733.0979-.1478.1653-.3135.1981-.4874.0329-.1739.0306-.3526-.0067-.5256-.0374-.1731-.109-.337-.2107-.4822s-.2315-.2689-.3818-.3638ZM54.3963 26.5866c-.827-.6087-1.569-1.3238-2.2067-2.1266-1.5561-1.7934-3.3201-3.7934-6.8481-3.7934-3.5281 0-5.2921 2-6.8482 3.7934-1.4085 1.6066-2.522 2.8733-4.8293 2.8733s-3.414-1.2667-4.8225-2.8733c-1.5561-1.7934-3.3202-3.7934-6.8482-3.7934-3.5281 0-5.2921 2-6.8482 3.7934-1.4018 1.6066-2.5152 2.8733-4.8225 2.8733-2.30736 0-3.41407-1.2667-4.8226-2.8733-.96464-1.2595-2.18203-2.3061-3.575-3.0734-.31767-.1432-.67899-.1578-1.007324-.0407-.328334.1171-.597861.3567-.751416.668-.153556.3113-.1790626.6699-.0711107.9996.1079517.3297.3408707.6046.6493587.7665 1.062322.6216 1.990152 1.4464 2.729882 2.4266C5.03719 28 6.80122 30 10.3226 30c3.5213 0 5.292-2 6.8481-3.7934 1.4086-1.6066 2.5153-2.8733 4.8226-2.8733 2.3073 0 3.4207 1.2667 4.8225 2.8733C28.3719 28 30.136 30 33.664 30c3.5281 0 5.2921-2 6.8482-3.7934 1.4085-1.6066 2.5219-2.8733 4.8293-2.8733 2.3073 0 3.4207 1.2667 4.8225 2.8733.7931.9916 1.7208 1.8688 2.7567 2.6067.1471.0998.3126.1695.487.205.1744.0355.3542.0362.5289.002.1747-.0343.3407-.1027.4885-.2014.1478-.0986.2744-.2256.3723-.3733.0979-.1478.1653-.3135.1981-.4874.0329-.1739.0306-.3526-.0067-.5256-.0374-.1731-.109-.337-.2107-.4822s-.2315-.2689-.3818-.3638ZM54.3963 15.92c-.8271-.6086-1.5692-1.3237-2.2067-2.1267C50.6335 12 48.8695 10 45.3415 10c-3.5281 0-5.2921 2-6.8482 3.7933-1.4085 1.6067-2.522 2.8734-4.8226 2.8734-2.3006 0-3.4207-1.2667-4.8292-2.8734C27.2854 12 25.5213 10 21.9933 10c-3.5281 0-5.2921 2-6.8482 3.7933-1.4018 1.6067-2.5152 2.8734-4.8225 2.8734-2.30736 0-3.41407-1.2667-4.8226-2.8734-.96464-1.2595-2.18203-2.306-3.575-3.0733-.31767-.1432-.67899-.1579-1.007324-.0408-.328334.1171-.597861.3568-.751416.6681-.153556.3113-.1790626.6698-.0711107.9995.1079517.3297.3408707.6047.6493587.7665C1.80683 13.735 2.73466 14.5598 3.47439 15.54c1.5628 1.7933 3.32683 3.7933 6.84821 3.7933 3.5213 0 5.292-2 6.8481-3.7933 1.4086-1.6067 2.522-2.8733 4.8226-2.8733 2.3006 0 3.414 1.2666 4.8225 2.8733 1.5561 1.7933 3.3202 3.7933 6.8549 3.7933 3.5348 0 5.2921-2 6.8482-3.7933 1.4018-1.6067 2.5152-2.8733 4.8226-2.8733 2.3073 0 3.4207 1.2666 4.8225 2.8733.7931.9915 1.7209 1.8688 2.7567 2.6067.1471.0997.3126.1694.487.205.1744.0355.3542.0362.5289.002.1747-.0343.3407-.1027.4885-.2014s.2744-.2256.3723-.3734c.0979-.1477.1653-.3134.1981-.4873.0329-.174.0306-.3526-.0067-.5257-.0374-.173-.109-.3369-.2107-.4821-.1017-.1453-.2315-.2689-.3818-.3638ZM54.3963 5.92c-.827-.60873-1.569-1.32386-2.2067-2.12667C50.6335 2 48.8695 0 45.3415 0c-3.5281 0-5.2921 2-6.8482 3.79333C37.0848 5.4 35.9713 6.66667 33.664 6.66667S30.25 5.4 28.8415 3.79333C27.2854 2 25.5213 0 21.9933 0c-3.5281 0-5.2921 2-6.8482 3.79333C13.7433 5.4 12.6299 6.66667 10.3226 6.66667 8.01524 6.66667 6.90853 5.4 5.5 3.79333 4.53536 2.53383 3.31797 1.48727 1.925.72 1.60733.57675 1.24601.562129.917676.679235.589342.796341.319815 1.03596.16626 1.34728c-.153556.31132-.1790626.66985-.0711107.99955.1079517.3297.3408707.60464.6493587.7665C1.80683 3.73502 2.73466 4.55979 3.47439 5.54c1.5628 1.79333 3.32683 3.79333 6.84821 3.79333 3.5213 0 5.292-2 6.8481-3.79333 1.4086-1.60667 2.5153-2.87333 4.8226-2.87333 2.3073 0 3.4207 1.26666 4.8225 2.87333 1.5561 1.79333 3.3202 3.79333 6.8482 3.79333 3.5281 0 5.2921-2 6.8482-3.79333 1.4085-1.60667 2.5219-2.87333 4.8293-2.87333 2.3073 0 3.4207 1.26666 4.8225 2.87333.7931.99155 1.7208 1.86882 2.7567 2.60667.1471.09977.3126.16946.487.205.1744.03553.3542.03621.5289.00198.1747-.03423.3407-.10267.4885-.20134.1478-.09868.2744-.2256.3723-.37338.0979-.14778.1653-.31346.1981-.48737.0329-.17392.0306-.3526-.0067-.52562-.0374-.17302-.109-.33693-.2107-.48217-.1017-.14523-.2315-.26889-.3818-.36377Z"/></g><defs><clipPath id="a"><path fill="#fff" d="M0 0h55v40H0z"/></clipPath></defs></svg>