<svg xmlns="http://www.w3.org/2000/svg" width="52" height="50" fill="none"><g fill="#074256" clip-path="url(#a)"><path d="M28.1928 9.26074c0-1.3802.5338-2.67447 1.5078-3.64061.9661-.97393 2.2604-1.50519 3.6328-1.50519 2.8333 0 5.1406 2.30726 5.1406 5.14586v4.8463h4.2604V9.2608c0-5.18746-4.2136-9.413998-9.4014-9.413998-2.513 0-4.8724.9792-6.6458 2.760398-1.7813 1.77347-2.7526 4.1406-2.7526 6.65367V27.8882h4.2604l-.0022-18.62746ZM51.5521 29.8854H.448079c-.1875 0-.333333.1458-.333333.3333v5.1537c0 7.966 6.479204 14.448 14.439954 14.448h22.8934c7.9606 0 14.44-6.4792 14.44-14.448v-5.1537c-.0026-.1849-.1485-.3333-.336-.3333ZM40.6667 23.7133c-1.474 0-2.6745 1.2005-2.6745 2.6796v1.4922h5.3541v-1.4922c0-1.4792-1.2005-2.6796-2.6796-2.6796ZM14.0079 26.3934c0-1.4792-1.2005-2.6797-2.6744-2.6797-1.47923 0-2.67969 1.2006-2.67969 2.6797v1.4922h5.35409v-1.4922Z"/></g><defs><clipPath id="a"><path fill="#fff" d="M0 0h52v50H0z"/></clipPath></defs></svg>