<svg xmlns="http://www.w3.org/2000/svg" version="1.1" viewBox="-5.0 -10.0 110.0 135.0">
 <path d="m92.062 7.9375c-2.2344-2.2344-5.8555-2.2344-8.0859 0l-31.266 31.258c0.14844 0.12891 0.30859 0.22656 0.44531 0.36719l7.2734 7.2734c0.14062 0.14062 0.23828 0.30078 0.36719 0.44531l31.266-31.254c2.2305-2.2344 2.2305-5.8555 0-8.0898z"/>
 <path d="m51.281 41.441c-2.1016-2.1016-5.5078-2.1016-7.6094 0l-2.8906 2.8906c3.3203 1.3203 6.3711 3.3047 8.9766 5.9102 2.6016 2.6016 4.5898 5.6562 5.9141 8.9766l2.8906-2.8906c2.1016-2.1016 2.1016-5.5078 0-7.6094z"/>
 <path d="m15.906 50.379c0.11719 0.10156 0.24609 0.18359 0.35547 0.29297l33.066 33.066c0.11328 0.11328 0.1875 0.24219 0.28906 0.35547 7.5781-9.418 7.0039-23.227-1.7422-31.973-8.7383-8.7461-22.547-9.3203-31.969-1.7422z"/>
 <path d="m14.383 52.547c-1.8594-1.8594-4.8711-1.8594-6.7266 0-1.8594 1.8594-1.8594 4.8711 0 6.7266l33.07 33.07c1.8594 1.8594 4.8711 1.8594 6.7266 0 1.8594-1.8594 1.8594-4.8711 0-6.7266z"/>
<text x="0.0" y="117.5" font-size="5.0" font-weight="bold" font-family="Arbeit Regular, Helvetica, Arial-Unicode, Arial, Sans-serif" fill="#000000">Created by Rikas Dzihab</text><text x="0.0" y="122.5" font-size="5.0" font-weight="bold" font-family="Arbeit Regular, Helvetica, Arial-Unicode, Arial, Sans-serif" fill="#000000">from Noun Project</text></svg>