<svg xmlns="http://www.w3.org/2000/svg" xmlns:xlink="http://www.w3.org/1999/xlink" version="1.1" x="0px" y="0px" viewBox="0 0 100 125" enable-background="new 0 0 100 100" xml:space="preserve"><g><path d="M81.159,5H18.842C18.04,5,17.39,5.65,17.39,6.452v6.761c0,0.802,0.65,1.452,1.452,1.452h62.317   c0.802,0,1.452-0.649,1.452-1.452V6.452C82.61,5.65,81.96,5,81.159,5z"/><path d="M79.066,46.008H20.934c-2.304,0-4.179,1.875-4.179,4.179c0,2.305,1.875,4.18,4.179,4.18h58.132   c2.304,0,4.179-1.875,4.179-4.18C83.245,47.883,81.37,46.008,79.066,46.008z"/><path d="M76.927,43.105c2.117-9.932,3.091-20.009,3.499-25.537H19.574c0.409,5.528,1.382,15.605,3.5,25.537H76.927z M31.958,21.936   c1.851,0,3.417,1.187,4.015,2.834h8.372c0.802,0,1.452,0.65,1.452,1.452c0,0.802-0.65,1.452-1.452,1.452h-8.372   c-0.598,1.647-2.164,2.834-4.015,2.834c-2.363,0-4.286-1.922-4.286-4.286C27.673,23.858,29.595,21.936,31.958,21.936z"/><path d="M21.772,57.27C24.02,69.475,35.819,78.812,50,78.812c14.181,0,25.98-9.337,28.228-21.542H21.772z"/><path d="M50,81.715c-7.043,0-13.586-2.093-18.87-5.678c-1.869,5.516-3.05,11.349-3.496,17.404   c-0.029,0.402,0.109,0.799,0.384,1.095C28.294,94.833,28.679,95,29.083,95h41.835c0.404,0,0.789-0.167,1.064-0.463   c0.274-0.296,0.413-0.692,0.384-1.095c-0.446-6.056-1.627-11.888-3.497-17.403C63.585,79.622,57.043,81.715,50,81.715z"/></g><text x="0" y="115" fill="#000000" font-size="5px" font-weight="bold" font-family="'Helvetica Neue', Helvetica, Arial-Unicode, Arial, Sans-serif">Created by fauzan akbar</text><text x="0" y="120" fill="#000000" font-size="5px" font-weight="bold" font-family="'Helvetica Neue', Helvetica, Arial-Unicode, Arial, Sans-serif">from the Noun Project</text></svg>