<svg xmlns="http://www.w3.org/2000/svg" viewBox="0 0 128 160" x="0px" y="0px"><g><g data-name="Glyph"><path d="M89.4,94H38.6a1.505,1.505,0,0,0-.95,2.671,41.886,41.886,0,0,0,52.706,0A1.505,1.505,0,0,0,89.4,94Z"/><path d="M101.943,70H26.058a3.009,3.009,0,0,0-2.922,3.71,41.445,41.445,0,0,0,2.092,6.431A3.019,3.019,0,0,0,28.01,82H99.991a3.018,3.018,0,0,0,2.781-1.859,41.555,41.555,0,0,0,2.093-6.431A3.01,3.01,0,0,0,101.943,70Z"/><path d="M38.6,34H89.4a1.505,1.505,0,0,0,.95-2.671,41.886,41.886,0,0,0-52.706,0A1.505,1.505,0,0,0,38.6,34Z"/><path d="M111.5,0h-95A16.516,16.516,0,0,0,0,16.5v95A16.516,16.516,0,0,0,16.5,128h95A16.516,16.516,0,0,0,128,111.5v-95A16.516,16.516,0,0,0,111.5,0ZM16,11.5A4.5,4.5,0,1,1,11.5,16,4.5,4.5,0,0,1,16,11.5Zm0,105a4.5,4.5,0,1,1,4.5-4.5A4.5,4.5,0,0,1,16,116.5Zm96,0a4.5,4.5,0,1,1,4.5-4.5A4.5,4.5,0,0,1,112,116.5Zm-48,0A52.5,52.5,0,1,1,116.5,64,52.5,52.5,0,0,1,64,116.5Zm48-96a4.5,4.5,0,1,1,4.5-4.5A4.5,4.5,0,0,1,112,20.5Z"/><path d="M28.01,46a3.019,3.019,0,0,0-2.782,1.859,41.445,41.445,0,0,0-2.092,6.431A3.009,3.009,0,0,0,26.058,58h75.885a3.01,3.01,0,0,0,2.922-3.71,41.555,41.555,0,0,0-2.093-6.431A3.018,3.018,0,0,0,99.991,46Z"/></g></g><text x="0" y="143" fill="#000000" font-size="5px" font-weight="bold" font-family="'Helvetica Neue', Helvetica, Arial-Unicode, Arial, Sans-serif">Created by Flowicon</text><text x="0" y="148" fill="#000000" font-size="5px" font-weight="bold" font-family="'Helvetica Neue', Helvetica, Arial-Unicode, Arial, Sans-serif">from the Noun Project</text></svg>