<svg xmlns="http://www.w3.org/2000/svg" xmlns:xlink="http://www.w3.org/1999/xlink" version="1.1" x="0px" y="0px" viewBox="0 0 64 80" enable-background="new 0 0 64 64" xml:space="preserve"><g><path d="M7,8v14c0,0.55,0.45,1,1,1h8v-2V9V7H8C7.45,7,7,7.45,7,8z"/><path d="M40,51h-2v8c0,0.55,0.45,1,1,1h14c0.55,0,1-0.45,1-1v-8h-2H40z"/><path d="M55,44h-1v-1V24c0-9.37-7.63-17-17-17H24h-1V6c0-1.1-0.9-2-2-2h-2c-1.1,0-2,0.9-2,2v1v16v1c0,1.1,0.9,2,2,2h2   c1.1,0,2-0.9,2-2v-1h1h11c1.65,0,3,1.35,3,3v17v1h-1c-1.1,0-2,0.9-2,2v2c0,1.1,0.9,2,2,2h1h16h1c1.1,0,2-0.9,2-2v-2   C57,44.9,56.1,44,55,44z"/></g><text x="0" y="79" fill="#000000" font-size="5px" font-weight="bold" font-family="'Helvetica Neue', Helvetica, Arial-Unicode, Arial, Sans-serif">Created by Icon Lauk</text><text x="0" y="84" fill="#000000" font-size="5px" font-weight="bold" font-family="'Helvetica Neue', Helvetica, Arial-Unicode, Arial, Sans-serif">from the Noun Project</text></svg>