<svg xmlns="http://www.w3.org/2000/svg" version="1.1" viewBox="-5.0 -10.0 110.0 135.0">
 <path d="m82.883 24.191c-0.023437-0.26953-0.58984 4.9844-0.57812 4.9258 11.168 18.062 13.352 41.312-6.5156 31.039l4.0742-37.449h-25.598c-1.0312 1.9883-2.6992 3.5742-4.7344 4.5078-0.38672-1.0117-0.73438-2.0078-1.043-2.9922v-0.003906c1.8281-0.9375 3.1484-2.6367 3.6055-4.6367h30.598c0.41797 0 0.81641-0.16406 1.1094-0.45703s0.45703-0.69141 0.45703-1.1094v-3.1094c-0.007812-3.4492-2.8047-6.2422-6.2539-6.2383h-65.5c-3.4453 0-6.2422 2.7891-6.2539 6.2383v3.1094c0 0.41797 0.16406 0.81641 0.45703 1.1094s0.69141 0.45703 1.1055 0.45703h30.602c0.44531 1.9766 1.7266 3.6602 3.5156 4.6094-0.20703-1.8594-2.2578-5.3711 0.29687-6.0977 0.41016-0.074219 0.83203 0.019531 1.1719 0.25391 0.33984 0.23828 0.57422 0.60547 0.64453 1.0156 3.5273 17.168 16.332 35.938 31.379 44.172 23.574 10.238 22.547-17.809 7.4609-39.344z"/>
 <path d="m51.891 45.082c-3.6406-5.3242-6.5938-11.086-8.7891-17.152-2.9375-0.64844-5.4414-2.5586-6.8477-5.2227h-25.609l6.707 61.668c0.42969 3.9648 3.7812 6.9688 7.7695 6.957h40.262c3.9922 0.011719 7.3438-2.9922 7.7734-6.957l1.9062-17.59c-7.7695-3.582-16.184-11.32-23.172-21.703z"/>
<text x="0.0" y="117.5" font-size="5.0" font-weight="bold" font-family="Arbeit Regular, Helvetica, Arial-Unicode, Arial, Sans-serif" fill="#000000">Created by muhamad afiffudin</text><text x="0.0" y="122.5" font-size="5.0" font-weight="bold" font-family="Arbeit Regular, Helvetica, Arial-Unicode, Arial, Sans-serif" fill="#000000">from Noun Project</text></svg>