<svg xmlns="http://www.w3.org/2000/svg" viewBox="0 0 64 80" x="0px" y="0px"><title>1</title><path d="M29,30.57a4.00529,4.00529,0,0,0,4-4v-17a4.00071,4.00071,0,0,0-7.97-.5,4.06535,4.06535,0,0,0-.03.5v17a4.067,4.067,0,0,0,.03.5A4.00715,4.00715,0,0,0,29,30.57Z"/><path d="M5,27.07H23v-18H5a.99654.99654,0,0,0-1,1v16A1.003,1.003,0,0,0,5,27.07Z"/><path d="M42,30.07V41.35A9.17254,9.17254,0,0,1,43.47,41.24c4.00031-.04919,4.02631,2.08325,7.67005,2.15A5.58856,5.58856,0,0,0,54,42.71V30.07a18.08674,18.08674,0,0,0-19-18v12h1A6.00475,6.00475,0,0,1,42,30.07Z"/><path d="M55.46005,52.77972a8.50562,8.50562,0,0,1-8.64.00025,5.85991,5.85991,0,0,0-3.35-.94,5.79048,5.79048,0,0,0-3.32995.93975A8.50833,8.50833,0,0,1,31.5,52.78a5.84878,5.84878,0,0,0-3.34-.94,5.826,5.826,0,0,0-3.34.93975,8.51926,8.51926,0,0,1-8.65.00043,6.48824,6.48824,0,0,0-6.68-.00036A8.47079,8.47079,0,0,1,4,53.91v4.52H60V51.94A6.51453,6.51453,0,0,0,55.46005,52.77972Z"/><path d="M51.14011,45.38989c-4.00183.04859-4.0243-2.08233-7.67011-2.1499a5.78625,5.78625,0,0,0-3.32995.94983A8.49582,8.49582,0,0,1,31.5,44.19a5.84517,5.84517,0,0,0-3.34-.95,5.82171,5.82171,0,0,0-3.34.94983,8.519,8.519,0,0,1-8.65.0003,6.41906,6.41906,0,0,0-6.68-.00024A8.41024,8.41024,0,0,1,4,45.31L4,51.87994c3.99182.74225,4.67487-2.10962,8.84009-2.03991,3.98736-.05359,4.01751,2.08416,7.66,2.14,3.63867-.05994,3.67188-2.19562,7.66-2.14,3.9762-.05725,4.02161,2.07782,7.65,2.14,3.642-.05615,3.6723-2.19348,7.66-2.14,3.99829-.05457,4.0249,2.08246,7.67005,2.14,3.64923-.05786,3.66748-2.19452,7.67-2.14007a9.02836,9.02836,0,0,1,1.19.08V43.35C56,42.57941,55.31607,45.45715,51.14011,45.38989Z"/><text x="0" y="79" fill="#000000" font-size="5px" font-weight="bold" font-family="'Helvetica Neue', Helvetica, Arial-Unicode, Arial, Sans-serif">Created by yus</text><text x="0" y="84" fill="#000000" font-size="5px" font-weight="bold" font-family="'Helvetica Neue', Helvetica, Arial-Unicode, Arial, Sans-serif">from the Noun Project</text></svg>