<svg xmlns="http://www.w3.org/2000/svg" version="1.1" viewBox="-5.0 -10.0 110.0 135.0">
 <path d="m53.289 26.891c0-2.0703 0.80078-4.0117 2.2617-5.4609 1.4492-1.4609 3.3906-2.2578 5.4492-2.2578 4.25 0 7.7109 3.4609 7.7109 7.7188v7.2695h6.3906v-7.2695c0-7.7812-6.3203-14.121-14.102-14.121-3.7695 0-7.3086 1.4688-9.9688 4.1406-2.6719 2.6602-4.1289 6.2109-4.1289 9.9805v27.941h6.3906z"/>
 <path d="m88.328 57.828h-76.656c-0.28125 0-0.5 0.21875-0.5 0.5v7.7305c0 11.949 9.7188 21.672 21.66 21.672h34.34c11.941 0 21.66-9.7188 21.66-21.672v-7.7305c-0.003906-0.27734-0.22266-0.5-0.50391-0.5z"/>
 <path d="m72 48.57c-2.2109 0-4.0117 1.8008-4.0117 4.0195v2.2383h8.0312v-2.2383c0-2.2188-1.8008-4.0195-4.0195-4.0195z"/>
 <path d="m32.012 52.59c0-2.2188-1.8008-4.0195-4.0117-4.0195-2.2188 0-4.0195 1.8008-4.0195 4.0195v2.2383h8.0312z"/>
<text x="0.0" y="117.5" font-size="5.0" font-weight="bold" font-family="Arbeit Regular, Helvetica, Arial-Unicode, Arial, Sans-serif" fill="#000000">Created by ArashDesign</text><text x="0.0" y="122.5" font-size="5.0" font-weight="bold" font-family="Arbeit Regular, Helvetica, Arial-Unicode, Arial, Sans-serif" fill="#000000">from Noun Project</text></svg>