<svg xmlns="http://www.w3.org/2000/svg" width="110" height="135" fill="none"><path fill="#FFBB19" d="M12.9381 17.9375c2.2344-2.2344 5.8555-2.2344 8.0859 0l31.266 31.258c-.1484.1289-.3086.2265-.4453.3672l-7.2734 7.2734c-.1406.1406-.2383.3008-.3672.4453l-31.266-31.254c-2.2305-2.2344-2.2305-5.8556 0-8.0899ZM53.7192 51.441c2.1016-2.1016 5.5078-2.1016 7.6094 0l2.8906 2.8906c-3.3203 1.3203-6.3711 3.3047-8.9766 5.9102-2.6016 2.6016-4.5898 5.6562-5.9141 8.9766l-2.8906-2.8906c-2.1016-2.1016-2.1016-5.5078 0-7.6094l7.2813-7.2774ZM89.0941 60.379c-.1172.1016-.2461.1836-.3555.293l-33.066 33.066c-.1133.1133-.1875.2422-.2891.3554-7.5781-9.418-7.0039-23.227 1.7422-31.973 8.7383-8.7461 22.547-9.3203 31.969-1.7422l-.0006.0008ZM90.6171 62.547c1.8594-1.8594 4.8711-1.8594 6.7266 0 1.8594 1.8594 1.8594 4.8711 0 6.7266l-33.07 33.0704c-1.8594 1.859-4.8711 1.859-6.7266 0-1.8594-1.86-1.8594-4.8715 0-6.727l33.07-33.07Z"/></svg>